<svg width="490" height="490" version="1.1" viewBox="44 -44 490 490" xml:space="preserve" xmlns="http://www.w3.org/2000/svg"><g transform="translate(-55,-55)"><path d="m344 501c-65.4 0-127-25.5-173.2-71.8s-71.8-107.8-71.8-173.2 25.5-127 71.8-173.2 107.8-71.8 173.2-71.8 127 25.5 173.2 71.8c46.3 46.2 71.8 107.8 71.8 173.2s-25.5 127-71.8 173.2c-46.2 46.3-107.8 71.8-173.2 71.8zm0-480c-129.6 0-235 105.4-235 235s105.4 235 235 235 235-105.4 235-235-105.4-235-235-235z"/><path d="m344 381c-68.9 0-125-56.1-125-125s56.1-125 125-125 125 56.1 125 125-56.1 125-125 125zm0-240c-63.4 0-115 51.6-115 115s51.6 115 115 115 115-51.6 115-115-51.6-115-115-115z"/><path d="m344 181c-2.8 0-5-2.2-5-5v-80c0-2.8 2.2-5 5-5s5 2.2 5 5v80c0 2.8-2.2 5-5 5z"/><path d="m504 261h-80c-2.8 0-5-2.2-5-5s2.2-5 5-5h80c2.8 0 5 2.2 5 5s-2.2 5-5 5z"/><path d="m344 421c-2.8 0-5-2.2-5-5v-80c0-2.8 2.2-5 5-5s5 2.2 5 5v80c0 2.8-2.2 5-5 5z"/><path d="m264 261h-80c-2.8 0-5-2.2-5-5s2.2-5 5-5h80c2.8 0 5 2.2 5 5s-2.2 5-5 5z"/></g></svg>
